# xmcd
#
# Track frame offsets:
#	150
#	15838
#	33209
#	51653
#	71018
#	88137
#	109683
#	130362
#	145064
#	160792
#	177931
#	194248
#	207259
#	226170
#	243840
#	261173
#	278022
#	295024
#	307505
#	332220
#
# Disc length: 4626 seconds
#
# Revision: 0
# Processed by: cddbd v1.5.1PL0 Copyright (c) Steve Scherf et al.
# Submitted via: dBpowerAMP V4.0
#
DISCID=1a121014
DTITLE=vários - sertanejão das FMs
DYEAR=1900
DGENRE=Country
TTITLE0=nosso amor é ouro - zezé di camargo e luciano
TTITLE1=hotel califórnia - leonardo
TTITLE2=em qualquer lugar do mundo - daniel
TTITLE3=eu mereço - rick e renner
TTITLE4=é você que eu amo - bruno e marrone
TTITLE5=sinônimos - chitãozinho e xororó
TTITLE6=amor perfeito - gian e giovani
TTITLE7=ciúme exagerado - edson e hudosn
TTITLE8=perdi você - guilherme e santiago
TTITLE9=aqueles olhos - pedro e thiago
TTITLE10=fantasias - leonardo
TTITLE11=te amo mais que posso dizer - ataide e alexandre
TTITLE12=l love you baby -cezar e paulinho
TTITLE13=de la pra cá - chico rey e paraná
TTITLE14=a hora da despedida - alan e aladin
TTITLE15=você, o amor e eu -cleyton e camargo
TTITLE16=florece - rio negro e solimões
TTITLE17=história do sertão -roberta miranda
TTITLE18=só nóis dois -rick e renner
TTITLE19=lei do silêncio -guilherme e santiago
EXTD=
EXTT0=
EXTT1=
EXTT2=
EXTT3=
EXTT4=
EXTT5=
EXTT6=
EXTT7=
EXTT8=
EXTT9=
EXTT10=
EXTT11=
EXTT12=
EXTT13=
EXTT14=
EXTT15=
EXTT16=
EXTT17=
EXTT18=
EXTT19=
PLAYORDER=
